<svg xmlns="http://www.w3.org/2000/svg" viewBox="0.509575 0 199 200">
	<path d="M155.14716,191.20741c-6.14909,-0.87844 -11.61495,-3.31856 -16.29997,-7.32035c-1.85449,-1.65928 -3.80658,-3.90418 -5.85628,-6.73472c-2.83053,-4.00179 -5.07544,-6.92993 -6.53951,-8.78441c-16.9832,-19.91134 -37.08975,-32.79515 -60.22204,-38.65142c-10.83411,-2.63532 -20.59457,-3.12335 -29.37899,-1.36646c-9.27244,1.85449 -16.69039,5.95388 -22.05864,12.49339c16.39757,-33.57598 25.57241,-52.31607 27.5245,-56.12265c5.56346,-10.83411 15.12871,-16.49518 28.59815,-17.08081c4.2946,-0.0976 9.46765,0.19521 15.51913,1.07365c7.71076,1.17126 11.61495,1.75688 11.81016,1.75688c10.5413,0.68323 19.1305,-2.44012 25.86522,-9.37004c6.73472,-6.92993 9.66286,-15.61674 8.58921,-25.96282c35.72329,71.93459 54.26816,109.51237 55.63462,112.73332c3.22095,7.61316 3.31856,15.32392 0.48802,23.03469c-2.83053,7.80837 -8.00358,13.56704 -15.51913,17.27602c-5.75867,2.83053 -11.81016,3.90418 -18.15446,3.02574zM135.62625,22.05864c-3.41616,-6.73472 -8.29639,-12.10297 -14.7383,-16.10476c-6.3443,-4.00179 -13.37183,-5.95388 -21.08259,-5.95388c-7.61316,0 -14.64069,1.95209 -20.98499,5.95388c-6.3443,4.00179 -11.22453,9.37004 -14.64069,16.10476l-0.0976,0.29281c-38.74903,77.88847 -58.85558,118.5896 -60.41725,122.20097c-4.00179,9.66286 -4.197,19.52092 -0.58563,29.37899c3.70897,9.85807 10.24848,17.08081 19.61853,21.76583c9.07723,4.58742 18.44727,5.46586 28.20773,2.83053c9.76046,-2.63532 17.37362,-8.19879 22.93708,-16.69039c6.14909,-9.37004 14.8359,-14.05506 26.06043,-14.05506c11.22453,0 19.91134,4.68502 26.06043,14.05506c7.90597,12.00537 19.0329,18.05685 33.38077,18.05685c14.25027,0 25.27959,-5.95388 33.18557,-17.86164c7.90597,-11.90776 9.07723,-24.40115 3.51377,-37.48017c-1.56167,-3.70897 -21.66822,-44.4101 -60.31965,-122.20097z" fill="#ffffff"/>
</svg>